<?xml version="1.0" encoding="UTF-8"?>
<svg width="34px" height="32px" viewBox="0 0 34 32" version="1.1" xmlns="http://www.w3.org/2000/svg" xmlns:xlink="http://www.w3.org/1999/xlink">
    <title>MetaMask_Fox</title>
    <g id="Symbols" stroke="none" stroke-width="1" fill="none" fill-rule="evenodd" stroke-linecap="round" stroke-linejoin="round">
        <g id="butom/-metamask/-1.-connect" transform="translate(-160.000000, -8.000000)" fill-rule="nonzero">
            <g id="Group" transform="translate(161.000000, 8.000000)">
                <g id="Group-2" transform="translate(0.000000, 1.129412)">
                    <polygon id="Path" stroke="#E2761B" fill="#E2761B" points="30.4062745 0 17.92 9.27372549 20.2290196 3.80235294"></polygon>
                    <g id="Group" transform="translate(0.263529, 0.000000)" fill="#E4761B" stroke="#E4761B">
                        <polygon id="Path" points="1.31764706 0 13.7035294 9.36156863 11.507451 3.80235294"></polygon>
                        <polygon id="Path" points="25.6501961 21.4964706 22.3247059 26.5913725 29.44 28.5490196 31.4854902 21.6094118"></polygon>
                        <polygon id="Path" points="-8.91661472e-16 21.6094118 2.03294118 28.5490196 9.14823529 26.5913725 5.8227451 21.4964706"></polygon>
                        <polygon id="Path" points="8.74666667 12.8878431 6.76392157 15.8870588 13.8290196 16.2007843 13.5780392 8.60862745"></polygon>
                        <polygon id="Path" points="22.7137255 12.8878431 17.8196078 8.52078431 17.6564706 16.2007843 24.7090196 15.8870588"></polygon>
                        <polygon id="Path" points="9.14823529 26.5913725 13.3898039 24.5207843 9.7254902 21.6596078"></polygon>
                        <polygon id="Path" points="18.0705882 24.5207843 22.3247059 26.5913725 21.734902 21.6596078"></polygon>
                    </g>
                    <g id="Group" transform="translate(9.411765, 24.520784)" fill="#D7C1B3" stroke="#D7C1B3">
                        <polygon id="Path" points="13.1764706 2.07058824 8.92235294 -3.56664589e-15 9.26117647 2.77333333 9.22352941 3.94039216"></polygon>
                        <polygon id="Path" points="1.78332294e-15 2.07058824 3.95294118 3.94039216 3.92784314 2.77333333 4.24156863 -3.56664589e-15"></polygon>
                    </g>
                    <polygon id="Path" stroke="#233447" fill="#233447" points="13.427451 19.827451 9.88862745 18.7858824 12.3858824 17.6439216"></polygon>
                    <polygon id="Path" stroke="#233447" fill="#233447" points="18.56 19.827451 19.6015686 17.6439216 22.1113725 18.7858824"></polygon>
                    <g id="Group" transform="translate(6.086275, 15.887059)" fill="#CD6116" stroke="#CD6116">
                        <polygon id="Path" points="3.3254902 10.7043137 3.92784314 5.60941176 0 5.72235294"></polygon>
                        <polygon id="Path" points="15.8996078 5.60941176 16.5019608 10.7043137 19.827451 5.72235294"></polygon>
                        <polygon id="Path" points="18.8862745 -3.56664589e-15 11.8337255 0.31372549 12.4862745 3.94039216 13.5278431 1.75686275 16.0376471 2.89882353"></polygon>
                        <polygon id="Path" points="3.80235294 2.89882353 6.31215686 1.75686275 7.34117647 3.94039216 8.00627451 0.31372549 0.941176471 -3.56664589e-15"></polygon>
                    </g>
                    <g id="Group" transform="translate(7.027451, 15.887059)" fill="#E4751F" stroke="#E4751F">
                        <polygon id="Path" points="1.78332294e-15 0 2.96156863 5.77254902 2.86117647 2.89882353"></polygon>
                        <polygon id="Path" points="15.0964706 2.89882353 14.9709804 5.77254902 17.945098 0"></polygon>
                        <polygon id="Path" points="7.06509804 0.31372549 6.4 3.94039216 7.22823529 8.21960784 7.41647059 2.58509804"></polygon>
                        <polygon id="Path" points="10.892549 0.31372549 10.5537255 2.57254902 10.7043137 8.21960784 11.545098 3.94039216"></polygon>
                    </g>
                    <polygon id="Path" stroke="#F6851B" fill="#F6851B" points="18.572549 19.827451 17.7317647 24.1066667 18.3341176 24.5207843 21.9984314 21.6596078 22.1239216 18.7858824"></polygon>
                    <polygon id="Path" stroke="#F6851B" fill="#F6851B" points="9.88862745 18.7858824 9.98901961 21.6596078 13.6533333 24.5207843 14.2556863 24.1066667 13.427451 19.827451"></polygon>
                    <polygon id="Path" stroke="#C0AD9E" fill="#C0AD9E" points="18.6352941 28.4611765 18.6729412 27.2941176 18.3592157 27.0180392 13.6282353 27.0180392 13.3396078 27.2941176 13.3647059 28.4611765 9.41176471 26.5913725 10.7921569 27.7207843 13.5905882 29.6658824 18.3968627 29.6658824 21.2078431 27.7207843 22.5882353 26.5913725"></polygon>
                    <polygon id="Path" stroke="#161616" fill="#161616" points="18.3341176 24.5207843 17.7317647 24.1066667 14.2556863 24.1066667 13.6533333 24.5207843 13.3396078 27.2941176 13.6282353 27.0180392 18.3592157 27.0180392 18.6729412 27.2941176"></polygon>
                    <g id="Group" fill="#763D16" stroke="#763D16">
                        <polygon id="Path" points="30.9333333 9.87607843 32 4.75607843 30.4062745 0 18.3341176 8.96 22.9772549 12.8878431 29.5403922 14.8078431 30.9960784 13.1137255 30.3686275 12.6619608 31.372549 11.7458824 30.5945098 11.1435294 31.5984314 10.3780392"></polygon>
                        <polygon id="Path" points="-1.33749221e-15 4.75607843 1.06666667 9.87607843 0.389019608 10.3780392 1.39294118 11.1435294 0.62745098 11.7458824 1.63137255 12.6619608 1.00392157 13.1137255 2.44705882 14.8078431 9.01019608 12.8878431 13.6533333 8.96 1.58117647 0"></polygon>
                    </g>
                    <polygon id="Path" stroke="#F6851B" fill="#F6851B" points="29.5403922 14.8078431 22.9772549 12.8878431 24.972549 15.8870588 21.9984314 21.6596078 25.9137255 21.6094118 31.7490196 21.6094118"></polygon>
                    <polygon id="Path" stroke="#F6851B" fill="#F6851B" points="9.01019608 12.8878431 2.44705882 14.8078431 0.263529412 21.6094118 6.08627451 21.6094118 9.98901961 21.6596078 7.02745098 15.8870588"></polygon>
                    <polygon id="Path" stroke="#F6851B" fill="#F6851B" points="17.92 16.2007843 18.3341176 8.96 20.2415686 3.80235294 11.7709804 3.80235294 13.6533333 8.96 14.092549 16.2007843 14.2431373 18.4847059 14.2556863 24.1066667 17.7317647 24.1066667 17.7568627 18.4847059"></polygon>
                </g>
            </g>
        </g>
    </g>
</svg>