<?xml version="1.0" encoding="UTF-8"?>
<svg width="32px" height="32px" viewBox="0 0 32 32" version="1.1" xmlns="http://www.w3.org/2000/svg" xmlns:xlink="http://www.w3.org/1999/xlink">
    <title>Social/Discord/2.Solid 2</title>
    <g id="Symbols" stroke="none" stroke-width="1" fill="none" fill-rule="evenodd">
        <g id="Footeer" transform="translate(-1336.000000, -28.000000)" fill="#B9B9D0">
            <g id="Social/Discord/2.Solid" transform="translate(1336.000000, 28.000000)">
                <path d="M20.3184479,4.77857437 L20.465771,4.78341858 C23.0520573,5.05928912 24.9846011,5.64292183 26.8161964,6.91887873 C26.9879996,7.03856319 27.1179012,7.209156 27.187584,7.40660225 C29.6177818,14.2925677 30.2608031,20.3355023 29.1005077,23.2260286 C27.835522,25.7541034 25.8185469,27.7018011 23.6290846,27.7018011 C22.5132576,27.7018011 20.8009192,25.5431518 20.2153119,23.8144487 L20.2153119,23.8144487 L20.2058338,23.7832071 C21.1987188,23.6159627 22.2089235,23.3836253 23.24993,23.0861949 C23.780965,22.9344706 24.0884571,22.3809848 23.9367328,21.8499498 C23.7850085,21.3189148 23.2315228,21.0114227 22.7004878,21.163147 C18.3029126,22.4195971 14.5699906,22.4195971 10.1724155,21.163147 C9.64138045,21.0114227 9.08789468,21.3189148 8.93617039,21.8499498 C8.7844461,22.3809848 9.09193819,22.9344706 9.62297321,23.0861949 C10.6702846,23.3854267 11.6864199,23.6187747 12.6851078,23.7862387 L12.6204852,23.9906235 C12.0664667,25.6062551 10.6606676,27.5265951 9.60516839,27.6905271 L9.60516839,27.6905271 L9.46352085,27.7018011 C7.33883563,27.7018011 5.41113804,25.7468761 4.17028864,23.1345187 C3.10241212,20.3311326 3.71350314,14.2987748 6.02432644,7.42091992 C6.09016362,7.22496442 6.2151112,7.05422806 6.38197531,6.93220568 C8.15343296,5.63679536 9.95428197,5.05314247 12.4038905,4.78376971 C12.8503942,4.73466965 13.274847,4.98931983 13.4416739,5.4063871 L13.4416739,5.4063871 L14.456,7.94 L14.7644725,7.89994923 C15.3267165,7.82876027 15.8062378,7.78700787 16.206082,7.77506788 L16.206082,7.77506788 L16.4364516,7.77148437 C16.8781658,7.77148437 17.4337379,7.81452248 18.1084307,7.89994923 L18.1084307,7.89994923 L18.416,7.94 L19.4312293,5.4063871 C19.5791204,5.03665921 19.9295426,4.79446015 20.3184479,4.77857437 L20.3184479,4.77857437 Z M12.5131972,13.932038 C11.2386613,13.932038 10.2054458,14.9652535 10.2054458,16.2397894 C10.2054458,17.5143253 11.2386613,18.5475409 12.5131972,18.5475409 C13.7877332,18.5475409 14.8209487,17.5143253 14.8209487,16.2397894 C14.8209487,14.9652535 13.7877332,13.932038 12.5131972,13.932038 Z M20.359706,13.932038 C19.08517,13.932038 18.0519545,14.9652535 18.0519545,16.2397894 C18.0519545,17.5143253 19.08517,18.5475409 20.359706,18.5475409 C21.6342419,18.5475409 22.6674574,17.5143253 22.6674574,16.2397894 C22.6674574,14.9652535 21.6342419,13.932038 20.359706,13.932038 Z" id="Combined-Shape"></path>
            </g>
        </g>
    </g>
</svg>