<?xml version="1.0" encoding="UTF-8"?>
<svg width="240px" height="40px" viewBox="0 0 240 40" version="1.1" xmlns="http://www.w3.org/2000/svg" xmlns:xlink="http://www.w3.org/1999/xlink">
    <title>logotype/ logo 1</title>
    <g id="Symbols" stroke="none" stroke-width="1" fill="none" fill-rule="evenodd">
        <g id="Navigation/Desktop/1.-Header/3.-Classic-+-login+-lenguaje" transform="translate(-64.000000, -32.000000)" fill="#FEFEFE">
            <g id="logotype/-logo-1" transform="translate(64.000000, 32.000000)">
                <path d="M19.9999867,0 C30.9166798,0 39.8203337,8.77844135 39.9973151,19.633868 L40.0000001,19.9634492 L39.9978247,20.2395138 L39.9918694,20.5146563 L29.6847815,10.2263068 C24.3434537,4.89472434 15.7053128,4.8737518 10.3301271,10.0671344 L10.1679794,10.2263068 L10.0089843,10.3876871 C4.85806668,15.6993488 4.82682948,24.2033269 10.0095985,29.5462977 L10.1682482,29.7072318 L20.4015552,39.9218678 C20.2679028,39.9245508 20.1341833,39.9269654 19.999859,39.9269654 C16.3567652,39.9269654 12.8170114,38.9488823 9.73287436,37.0933436 L9.51335848,36.9593142 C9.37437848,36.8667532 9.19550889,36.8139598 9.04517419,36.800765 L8.97270152,36.7974667 L8.75660001,36.7974667 L1.91121115,39.9810173 C1.3682449,40.1004477 0.881978651,39.6383064 0.960694646,39.1006758 L0.970873916,39.0448103 L3.35124001,31.6176761 C3.40513099,31.3478409 3.35124001,31.0241459 3.18909668,30.8085057 C1.08096462,27.5713546 -1.33099261e-05,23.7946 -1.33099261e-05,19.9634492 C-1.33099261e-05,8.95654512 8.9730375,0 19.9999867,0 Z M12.7432089,12.7135676 C16.7486102,8.75234235 23.2117824,8.7127301 27.2663392,12.5947309 L27.3884623,12.7135676 L39.6116506,24.8017432 C37.8205637,31.8307484 32.2296912,37.3818414 25.1350922,39.1855545 L24.9196465,39.2390631 L12.7432089,27.1971218 C8.69721398,23.1958175 8.69728144,16.7148052 12.7432089,12.7135676 Z M34.6721301,24.8106832 C33.9920648,24.138065 32.9665119,24.1170457 32.2648536,24.7476252 L32.1979848,24.8106832 L24.9756394,31.9531866 C24.3069624,32.6144776 24.306895,33.7387791 24.9756394,34.4000701 C25.6227461,35.0400292 26.7082534,35.0607355 27.3837052,34.4620077 L27.4498521,34.4000701 L34.6721301,27.2575 C35.340807,26.596209 35.3408745,25.4719742 34.6721301,24.8106832 Z M24.9141146,15.1603844 C22.2393393,12.5151536 17.8926017,12.5149535 15.2175565,15.1603844 C12.5768734,17.7718996 12.5430185,21.9943935 15.1159918,24.6472158 L15.2175565,24.7497713 L19.4974399,28.9824475 C20.1445467,29.6224065 21.2301171,29.6430503 21.9055118,29.044379 L21.9716526,28.9824475 L29.193998,21.8398773 C29.8411048,21.1999183 29.8619792,20.1264011 29.2566213,19.4584101 L29.193998,19.3929938 L24.9141146,15.1603844 Z M17.6519212,17.6590073 C18.8965148,16.4139231 20.9228934,16.3885133 22.1993966,17.5827776 L22.2781878,17.6590073 L25.2427186,20.6248381 L20.6165177,25.2528624 L17.6519212,22.2870973 C16.3813986,21.016074 16.3813986,18.9300307 17.6519212,17.6590073 Z" id="Shape"></path>
                <path d="M55.3846154,8.84615385 L61.8491399,8.84615385 L67.1153846,17.4824584 L72.3816293,8.84615385 L78.8461538,8.84615385 L78.8461538,31.1538462 L72.760037,31.1538462 L72.760037,18.3428692 L67.1153846,27.0746931 L66.9892708,27.0746931 L61.3761469,18.4065934 L61.3761469,31.1538462 L55.3846154,31.1538462 L55.3846154,8.84615385 Z M83.0769231,31.1538462 L89.2307692,31.1538462 L89.2307692,8.84615385 L83.0769231,8.84615385 L83.0769231,31.1538462 Z M101.761119,25.6724927 C105.405035,25.6724927 107.83907,23.6835869 107.899352,20.1661365 L107.900498,19.9681044 C107.900498,16.398879 105.45116,14.3275073 101.761119,14.3275073 L99.2481061,14.3275073 L99.2481061,25.6724927 L101.761119,25.6724927 Z M93.0769231,8.84615385 L101.665706,8.84615385 C109.538742,8.84615385 114.138185,13.3438461 114.229387,19.6799548 L114.230769,19.9363093 C114.230769,26.3736598 109.554659,31.1538462 101.538421,31.1538462 L93.0769231,31.1538462 L93.0769231,8.84615385 Z M128.943424,22.4206661 L126.491314,16.1238704 L124.007774,22.4206661 L128.943424,22.4206661 Z M123.5991,8.84615385 L129.477889,8.84615385 L138.846154,31.1538462 L132.307174,31.1538462 L130.70391,27.1986593 L122.215856,27.1986593 L120.644023,31.1538462 L114.230769,31.1538462 L123.5991,8.84615385 Z M139.230769,27.8410148 L142.629941,23.7292815 C144.801717,25.4823668 147.225239,26.4066783 149.774568,26.4066783 C151.41125,26.4066783 152.292561,25.8329839 152.292561,24.8767373 L152.292561,24.8129339 C152.292561,24.4839417 152.200851,24.207443 151.947887,23.9561286 L151.871164,23.8849861 C151.708701,23.7439775 151.491421,23.6103431 151.206348,23.4789872 L151.058101,23.4134756 C151.006763,23.3916859 150.953481,23.369936 150.898196,23.3482021 L150.72627,23.2830254 L150.72627,23.2830254 L150.541964,23.2178038 C150.510195,23.2069219 150.477895,23.1960323 150.445056,23.1851319 L150.241504,23.1195776 L150.241504,23.1195776 L150.024671,23.0536246 L150.024671,23.0536246 L149.794195,22.9871312 L149.794195,22.9871312 L149.549718,22.9199561 L149.549718,22.9199561 L149.155959,22.8176054 L149.155959,22.8176054 L148.728667,22.7129244 L148.728667,22.7129244 L148.137574,22.5739049 L148.137574,22.5739049 L147.70346,22.4682875 L147.70346,22.4682875 L147.276711,22.360012 L147.276711,22.360012 L146.85781,22.2485124 L146.85781,22.2485124 L146.583141,22.1721085 L146.583141,22.1721085 L146.312317,22.0938523 L146.312317,22.0938523 L146.04548,22.0135761 L146.04548,22.0135761 L145.782774,21.931112 C145.739342,21.9171764 145.696087,21.9031426 145.653014,21.8890071 L145.396771,21.8029469 C145.354433,21.7883909 145.312283,21.7737263 145.270323,21.7589495 L145.020864,21.6689157 C144.938486,21.6384372 144.856892,21.6074823 144.776106,21.576023 L144.536192,21.4801039 C142.00345,20.4402289 140.321766,18.8552051 140.270622,15.8089556 L140.269422,15.6013526 C140.269422,11.4576842 143.511252,8.46153846 148.798852,8.46153846 C152.544374,8.46153846 155.471455,9.48145452 157.863508,11.425816 L154.810488,15.7925617 C152.79612,14.3582253 150.592942,13.5932547 148.641577,13.5932547 C147.162302,13.5932547 146.438333,14.2307525 146.438333,15.0275912 L146.438333,15.0913276 C146.438333,15.696442 146.704156,16.0996202 147.557768,16.4738775 L147.70992,16.5377848 L147.70992,16.5377848 L147.873948,16.6013193 L147.873948,16.6013193 L148.050213,16.6646745 C148.08063,16.6752295 148.111572,16.6857852 148.143046,16.6963454 L148.338342,16.759795 L148.338342,16.759795 L148.546776,16.8235496 L148.546776,16.8235496 L148.768708,16.8878029 L148.768708,16.8878029 L149.004499,16.9527486 L149.004499,16.9527486 L149.254509,17.0185804 L149.254509,17.0185804 L149.519098,17.0854921 L149.519098,17.0854921 L149.944109,17.1883078 L149.944109,17.1883078 L150.246725,17.2587664 L150.246725,17.2587664 L150.581689,17.3339676 C150.637037,17.3466422 150.692146,17.359389 150.747012,17.3722109 L151.073292,17.450064 L151.073292,17.450064 L151.393681,17.5298476 L151.393681,17.5298476 L151.708099,17.6116919 L151.708099,17.6116919 L152.016465,17.6957271 L152.016465,17.6957271 L152.318697,17.7820832 L152.318697,17.7820832 L152.614716,17.8708904 L152.614716,17.8708904 L152.904441,17.9622788 L152.904441,17.9622788 L153.18779,18.0563786 C156.456022,19.1705318 158.406091,20.8648243 158.460374,24.0691814 L158.461538,24.2711747 C158.461538,28.8291296 154.904893,31.5384615 149.55429,31.5384615 C145.651493,31.5384615 141.937506,30.2953342 139.230769,27.8410148 Z M171.396298,31.1538462 L167.449922,31.1538462 L167.449922,12.4791704 L160.384615,12.4791704 L160.384615,8.84615385 L178.461538,8.84615385 L178.461538,12.4791704 L171.396298,12.4791704 L171.396298,31.1538462 Z M199.072621,12.3835172 L186.55023,12.3835172 L186.55023,18.1197675 L197.649621,18.1197675 L197.649621,21.6571308 L186.55023,21.6571308 L186.55023,27.6164828 L199.230769,27.6164828 L199.230769,31.1538462 L182.692308,31.1538462 L182.692308,8.84615385 L199.072621,8.84615385 L199.072621,12.3835172 Z M207.188015,16.0635448 C207.334141,16.3787231 207.600507,16.6731808 207.987637,16.9459911 C208.374241,17.219331 208.907498,17.4714869 209.586881,17.7024587 C209.76805,17.7641748 209.96225,17.8265923 210.169474,17.8897301 L210.490079,17.9849792 L210.490079,17.9849792 L210.830217,18.0813229 L210.830217,18.0813229 L211.189882,18.1787752 L211.189882,18.1787752 L211.569071,18.2773503 L211.569071,18.2773503 L211.967778,18.3770622 C212.035856,18.3937764 212.104746,18.4105386 212.17445,18.427349 C213.324013,18.7218066 214.343548,19.0473121 215.232133,19.4043951 C216.120719,19.7618752 216.857265,20.1976699 217.442822,20.7123751 C218.02838,21.2274112 218.472672,21.8262566 218.775701,22.5087788 C219.078795,23.1918306 219.230769,23.9954988 219.230769,24.9198497 C219.230769,25.9707088 219.039175,26.9053869 218.656447,27.724877 C218.273785,28.5443008 217.740989,29.237746 217.058715,29.805014 C216.376375,30.3723482 215.556187,30.8031779 214.598678,31.0972384 C213.640708,31.3912327 212.588387,31.5384615 211.441715,31.5384615 C209.752522,31.5384615 208.13626,31.2494323 206.593128,30.6717047 C205.049601,30.0940433 203.621451,29.2061686 202.307692,28.0084779 L204.622457,25.235028 C205.686013,26.1599085 206.75982,26.8690431 207.844401,27.3624319 C208.928458,27.8564164 210.159232,28.1030777 211.535606,28.1030777 C212.724264,28.1030777 213.667581,27.850988 214.366544,27.3466763 C215.064982,26.8423645 215.414463,26.1599085 215.414463,25.2980504 C215.414463,24.8991953 215.346525,24.541649 215.210648,24.2265369 C215.074772,23.9112924 214.823518,23.6227265 214.457939,23.3597801 C214.091834,23.097297 213.589919,22.8505033 212.952521,22.619068 L212.687081,22.5261277 C212.641125,22.5105414 212.59431,22.4949072 212.546637,22.479225 L212.250297,22.3845581 C212.148082,22.3528115 212.042433,22.3208743 211.933347,22.2887473 L211.595781,22.1917983 L211.595781,22.1917983 L211.237589,22.0937166 L211.237589,22.0937166 L210.858766,21.9945079 L210.858766,21.9945079 L210.459303,21.8941778 L210.459303,21.8941778 C209.288255,21.6213675 208.248155,21.3165826 207.339003,20.9802203 C206.429392,20.6443214 205.666499,20.2238189 205.049601,19.7195733 C204.432768,19.2152616 203.962128,18.606089 203.638074,17.891526 C203.31402,17.1774926 203.152256,16.3053073 203.152256,15.2756322 C203.152256,14.3094429 203.337937,13.4318954 203.710415,12.6439828 C204.082827,11.856004 204.594598,11.1783806 205.246123,10.6111126 C205.897647,10.0437784 206.681106,9.60791748 207.59709,9.30313258 C208.512549,8.99874489 209.512569,8.84615385 210.597151,8.84615385 C212.202768,8.84615385 213.647082,9.08248792 214.929565,9.55522226 C216.212114,10.0280228 217.416475,10.716503 218.542516,11.6196037 L216.47802,14.5506758 C215.477014,13.8155246 214.486258,13.2536188 213.506277,12.8645613 C212.525837,12.4760333 211.535606,12.2814715 210.534601,12.2814715 C209.408494,12.2814715 208.532589,12.5390558 207.906952,13.0536285 C207.281381,13.5687309 206.968497,14.1937253 206.968497,14.9288765 C206.968497,15.3701658 207.041363,15.7483665 207.188015,16.0635448 Z M232.93476,31.1538462 L228.988384,31.1538462 L228.988384,12.4791704 L221.923077,12.4791704 L221.923077,8.84615385 L240,8.84615385 L240,12.4791704 L232.93476,12.4791704 L232.93476,31.1538462 Z" id="Shape"></path>
            </g>
        </g>
    </g>
</svg>