<?xml version="1.0" encoding="UTF-8"?>
<svg width="16px" height="16px" viewBox="0 0 16 16" version="1.1" xmlns="http://www.w3.org/2000/svg" xmlns:xlink="http://www.w3.org/1999/xlink">
    <title>MATIC COIN</title>
    <g id="MATIC-COIN" stroke="none" stroke-width="1" fill="none" fill-rule="evenodd">
        <g id="Group-4-Copy">
            <circle id="Oval" fill="#8247E5" cx="8" cy="8" r="8"></circle>
            <path d="M10.5718016,6.25074184 C10.3890339,6.14391691 10.154047,6.14391691 9.94516971,6.25074184 L8.48302872,7.13204748 L7.49086162,7.69287834 L6.05483029,8.57418398 C5.87206266,8.6810089 5.63707572,8.6810089 5.42819843,8.57418398 L4.30548303,7.87982196 C4.1227154,7.77299703 3.9921671,7.55934718 3.9921671,7.3189911 L3.9921671,5.98367953 C3.9921671,5.77002967 4.09660574,5.55637982 4.30548303,5.42284866 L5.42819843,4.75519288 C5.61096606,4.64836795 5.845953,4.64836795 6.05483029,4.75519288 L7.17754569,5.4495549 C7.36031332,5.55637982 7.49086162,5.77002967 7.49086162,6.01038576 L7.49086162,6.89169139 L8.48302872,6.3041543 L8.48302872,5.39614243 C8.48302872,5.18249258 8.37859008,4.96884273 8.16971279,4.83531157 L6.08093995,3.58011869 C5.89817232,3.47329377 5.66318538,3.47329377 5.45430809,3.58011869 L3.31331593,4.8620178 C3.10443864,4.96884273 3,5.18249258 3,5.39614243 L3,7.90652819 C3,8.12017804 3.10443864,8.33382789 3.31331593,8.46735905 L5.42819843,9.72255193 C5.61096606,9.82937685 5.845953,9.82937685 6.05483029,9.72255193 L7.49086162,8.86795252 L8.48302872,8.28041543 L9.91906005,7.42581602 C10.1018277,7.3189911 10.3368146,7.3189911 10.5456919,7.42581602 L11.6684073,8.09347181 C11.8511749,8.20029674 11.9817232,8.41394659 11.9817232,8.65430267 L11.9817232,9.98961424 C11.9817232,10.2032641 11.8772846,10.4169139 11.6684073,10.5504451 L10.5718016,11.2181009 C10.3890339,11.3249258 10.154047,11.3249258 9.94516971,11.2181009 L8.82245431,10.5504451 C8.63968668,10.4436202 8.50913838,10.2299703 8.50913838,9.98961424 L8.50913838,9.13501484 L7.51697128,9.72255193 L7.51697128,10.6038576 C7.51697128,10.8175074 7.62140992,11.0311573 7.83028721,11.1646884 L9.94516971,12.4198813 C10.1279373,12.5267062 10.3629243,12.5267062 10.5718016,12.4198813 L12.6866841,11.1646884 C12.8694517,11.0578635 13,10.8442136 13,10.6038576 L13,8.06676558 C13,7.85311573 12.8955614,7.63946588 12.6866841,7.50593472 L10.5718016,6.25074184 Z" id="Path" fill="#FFFFFF" fill-rule="nonzero"></path>
        </g>
    </g>
</svg>