<?xml version="1.0" encoding="UTF-8"?>
<svg width="24px" height="24px" viewBox="0 0 24 24" version="1.1" xmlns="http://www.w3.org/2000/svg" xmlns:xlink="http://www.w3.org/1999/xlink">
    <title>Icons/1. Outline/1. Basic/0.Icon 2</title>
    <g id="Page-1" stroke="none" stroke-width="1" fill="none" fill-rule="evenodd">
        <g id="1.3.17.0-Polygon-Hackathon" transform="translate(-232.000000, -1020.000000)" fill="#3AC24E">
            <g id="Icons/1.-Outline/1.-Basic/0.Icon" transform="translate(232.000000, 1020.000000)">
                <path d="M12,2 C17.5228475,2 22,6.4771525 22,12 C22,17.5228475 17.5228475,22 12,22 C6.4771525,22 2,17.5228475 2,12 C2,6.4771525 6.4771525,2 12,2 Z M12,4 C7.581722,4 4,7.581722 4,12 C4,16.418278 7.581722,20 12,20 C16.418278,20 20,16.418278 20,12 C20,7.581722 16.418278,4 12,4 Z M16.7399401,9.32732721 C17.0828695,9.70454962 17.0835873,10.2724576 16.7602482,10.6497962 L16.6726728,10.7399401 L11.1726728,15.7399401 C10.8230367,16.0577911 10.3044359,16.0842787 9.92663899,15.8194028 L9.82732721,15.7399401 L7.32732721,13.4672128 C6.91866959,13.0957059 6.888553,12.4632576 7.26005993,12.0545999 C7.6029894,11.6773775 8.16825947,11.6226989 8.57461521,11.9087192 L8.67267279,11.9873327 L10.4999929,13.649 L15.3273272,9.26005993 C15.7359848,8.888553 16.3684331,8.91866959 16.7399401,9.32732721 Z" id="Shape"></path>
            </g>
        </g>
    </g>
</svg>