<?xml version="1.0" encoding="UTF-8"?>
<svg width="24px" height="24px" viewBox="0 0 24 24" version="1.1" xmlns="http://www.w3.org/2000/svg" xmlns:xlink="http://www.w3.org/1999/xlink">
    <title>Navigation/Close/1.Outline 2</title>
    <g id="Symbols" stroke="none" stroke-width="1" fill="none" fill-rule="evenodd">
        <g id="Question-card" transform="translate(-456.000000, -16.000000)" fill="#FF8F56">
            <g id="Navigation/Close/1.Outline" transform="translate(456.000000, 16.000000)">
                <path d="M19.2071068,4.12132035 C20.6506456,5.56485917 20.7004228,7.87437043 19.3564384,9.3776315 L19.2071068,9.53553387 L8.70710678,20.0355339 C8.55082647,20.1918142 8.34814508,20.2910254 8.13144398,20.3197547 L8,20.3284271 L4,20.3284271 C3.48716416,20.3284271 3.06449284,19.9423869 3.00672773,19.4450482 L3,19.3284271 L3,15.3284271 C3,15.1074134 3.07316447,14.8939431 3.20608063,14.7203976 L3.29289322,14.6213203 L13.7928932,4.1213203 C15.287987,2.62622655 17.712013,2.62622657 19.2071068,4.12132035 Z M13.5,7.243 L5,15.7424271 L5,18.3274271 L7.585,18.3274271 L16.085,9.828 L13.5,7.243 Z M15.33007,5.42313787 L15.2071068,5.53553387 L14.914,5.828 L17.499,8.413 L17.7928932,8.12132032 C18.4672692,7.44694429 18.5047346,6.3768427 17.9052892,5.65849718 L17.7928932,5.53553391 C17.1185172,4.86115788 16.0484156,4.82369254 15.33007,5.42313787 Z" id="Combined-Shape"></path>
            </g>
        </g>
    </g>
</svg>