<?xml version="1.0" encoding="UTF-8"?>
<svg width="20px" height="20px" viewBox="0 0 20 20" version="1.1" xmlns="http://www.w3.org/2000/svg" xmlns:xlink="http://www.w3.org/1999/xlink">
    <title>Status/Alert/1.Outline 2</title>
    <g id="Page-1" stroke="none" stroke-width="1" fill="none" fill-rule="evenodd">
        <g id="1.3.14.0-Polygon-Hackathon" transform="translate(-376.000000, -650.000000)" fill="#25235C">
            <g id="Status/Alert/1.Outline" transform="translate(376.000000, 650.000000)">
                <path d="M10,1.66666667 C14.6023729,1.66666667 18.3333333,5.39762708 18.3333333,10 C18.3333333,14.6023729 14.6023729,18.3333333 10,18.3333333 C5.39762708,18.3333333 1.66666667,14.6023729 1.66666667,10 C1.66666667,5.39762708 5.39762708,1.66666667 10,1.66666667 Z M10,3.33333333 C6.31810167,3.33333333 3.33333333,6.31810167 3.33333333,10 C3.33333333,13.6818983 6.31810167,16.6666667 10,16.6666667 C13.6818983,16.6666667 16.6666667,13.6818983 16.6666667,10 C16.6666667,6.31810167 13.6818983,3.33333333 10,3.33333333 Z M10.0083333,12.5 C10.4685706,12.5 10.8416667,12.873096 10.8416667,13.3333333 C10.8416667,13.7606965 10.5199665,14.1129226 10.1055176,14.1610602 L10,14.1666667 C9.53976271,14.1666667 9.16666667,13.7935706 9.16666667,13.3333333 C9.16666667,12.9059701 9.48836683,12.553744 9.90281573,12.5056064 L10.0083333,12.5 Z M10,5.83333333 C10.4273632,5.83333333 10.7795893,6.15503349 10.8277269,6.5694824 L10.8333333,6.66666667 L10.8333333,10 C10.8333333,10.4602373 10.4602373,10.8333333 10,10.8333333 C9.5726368,10.8333333 9.2204107,10.5116332 9.17227311,10.0971843 L9.16666667,10 L9.16666667,6.66666667 C9.16666667,6.20642938 9.53976271,5.83333333 10,5.83333333 Z" id="Shape"></path>
            </g>
        </g>
    </g>
</svg>