<?xml version="1.0" encoding="UTF-8"?>
<svg width="200px" height="200px" viewBox="0 0 200 200" version="1.1" xmlns="http://www.w3.org/2000/svg" xmlns:xlink="http://www.w3.org/1999/xlink">
    <title>1.Favicon</title>
    <g id="1.Favicon" stroke="none" stroke-width="1" fill="none" fill-rule="evenodd">
        <rect id="Rectangle" fill="#FFFFFF" x="0" y="0" width="200" height="200" rx="48"></rect>
        <path d="M100.00002,40 C132.750079,40 159.461041,66.3353241 159.991985,98.901604 L160.00004,99.8903475 L159.993514,100.718542 L159.975648,101.543969 L129.054385,70.6789204 C113.030401,54.684173 87.1159783,54.6212554 70.9904212,70.2014031 L70.5039782,70.6789204 L70.0269929,71.1630614 C54.57424,87.0980465 54.4805284,112.609981 70.0288355,128.638893 L70.5047845,129.121695 L101.204705,159.765604 C100.803748,159.773652 100.40259,159.780896 99.999617,159.780896 C89.0703356,159.780896 78.4510741,156.846647 69.198663,151.280031 L68.5401154,150.877943 C68.1231754,150.60026 67.5865666,150.441879 67.1355625,150.402295 L66.9181445,150.3924 L66.26984,150.3924 L45.7336734,159.943052 C44.1047746,160.301343 42.6459759,158.914919 42.8821239,157.302027 L42.9126617,157.134431 L50.05376,134.853028 C50.2154329,134.043523 50.05376,133.072438 49.56733,132.425517 C43.2429338,122.714064 40,111.3838 40,99.8903475 C40,66.8696354 66.9191524,40 100.00002,40 Z M78.2296665,78.1407028 C90.2458706,66.2570271 109.635387,66.1381903 121.799058,77.7841926 L122.165427,78.1407028 L158.834992,114.40523 C153.461731,135.492245 136.689113,152.145524 115.405317,157.556664 L114.758979,157.717189 L78.2296665,121.591365 C66.0916819,109.587452 66.0918842,90.1444157 78.2296665,78.1407028 Z M144.01643,114.43205 C141.976234,112.414195 138.899576,112.351137 136.794601,114.242876 L136.593994,114.43205 L114.926958,135.85956 C112.920927,137.843433 112.920725,141.216337 114.926958,143.20021 C116.868278,145.120087 120.1248,145.182206 122.151156,143.386023 L122.349596,143.20021 L144.01643,121.7725 C146.022461,119.788627 146.022663,116.415923 144.01643,114.43205 Z M114.742384,85.4811532 C106.718058,77.5454609 93.677845,77.5448604 85.6527094,85.4811532 C77.73066,93.3156987 77.6290953,105.98318 85.3480152,113.941647 L85.6527094,114.249314 L98.4923596,126.947342 C100.43368,128.86722 103.690391,128.929151 105.716575,127.133137 L105.914998,126.947342 L127.582034,105.519632 C129.523354,103.599755 129.585978,100.379203 127.769904,98.3752303 L127.582034,98.1789815 L114.742384,85.4811532 Z M92.9558035,92.9770218 C96.6895842,89.2417694 102.76872,89.1655398 106.59823,92.7483329 L106.834603,92.9770218 L115.728196,101.874514 L101.849593,115.758587 L92.9558035,106.861292 C89.1442358,103.048222 89.1442358,96.790092 92.9558035,92.9770218 Z" id="Shape" fill="#25235C"></path>
    </g>
</svg>